<svg id="Шар_1" data-name="Шар 1" xmlns="http://www.w3.org/2000/svg" viewBox="0 0 29.17 27.17"><defs><style>.cls-1{fill:#3e8ce2;}</style></defs><title>add_to_fav</title><path class="cls-1" d="M17,30a1,1,0,0,1-1-1V27a3,3,0,0,0-.88-2.12A3,3,0,0,0,13,24H5a3,3,0,0,0-2.12.88A3,3,0,0,0,2,27v2a1,1,0,0,1-2,0V27a5,5,0,0,1,5-5h8a5,5,0,0,1,5,5v2A1,1,0,0,1,17,30Z" transform="translate(0 -2.83)"/><path class="cls-1" d="M9,20a5,5,0,1,1,5-5A5,5,0,0,1,9,20Zm0-8a3,3,0,1,0,3,3A3,3,0,0,0,9,12Z" transform="translate(0 -2.83)"/><path class="cls-1" d="M23,30a1,1,0,0,1-1-1V27a3,3,0,0,0-.63-1.83,2.93,2.93,0,0,0-1.62-1.07,1,1,0,1,1,.5-1.94A5,5,0,0,1,24,27v2A1,1,0,0,1,23,30Z" transform="translate(0 -2.83)"/><path class="cls-1" d="M16,19.88a1,1,0,0,1-.25-2,3,3,0,0,0,1.63-1.07,3,3,0,0,0,0-3.67,3,3,0,0,0-1.63-1.07,1,1,0,0,1,.5-1.94A5,5,0,0,1,19,18.07a5,5,0,0,1-2.71,1.78Z" transform="translate(0 -2.83)"/><path class="cls-1" d="M24,13.17a.5.5,0,0,1-.5-.5V3.33a.5.5,0,1,1,1,0v9.34A.5.5,0,0,1,24,13.17Z" transform="translate(0 -2.83)"/><path class="cls-1" d="M28.67,8.5H19.33a.5.5,0,0,1,0-1h9.34a.5.5,0,0,1,0,1Z" transform="translate(0 -2.83)"/></svg>