<svg id="Шар_1" data-name="Шар 1" xmlns="http://www.w3.org/2000/svg" viewBox="0 0 14 15.33"><defs><style>.cls-1{fill:#aeaeae;}</style></defs><title>calendar</title><path class="cls-1" d="M12.67,15.67H3.33A2.34,2.34,0,0,1,1,13.33V4A2.33,2.33,0,0,1,3.33,1.67h9.34A2.33,2.33,0,0,1,15,4v9.33A2.34,2.34,0,0,1,12.67,15.67Zm-9.34-12A.33.33,0,0,0,3,4v9.33a.34.34,0,0,0,.33.34h9.34a.34.34,0,0,0,.33-.34V4a.33.33,0,0,0-.33-.33Z" transform="translate(-1 -0.33)"/><path class="cls-1" d="M10.67,5a1,1,0,0,1-1-1V1.33a1,1,0,0,1,2,0V4A1,1,0,0,1,10.67,5Z" transform="translate(-1 -0.33)"/><path class="cls-1" d="M5.33,5a1,1,0,0,1-1-1V1.33a1,1,0,0,1,2,0V4A1,1,0,0,1,5.33,5Z" transform="translate(-1 -0.33)"/><path class="cls-1" d="M14,7.67H2a1,1,0,0,1,0-2H14a1,1,0,0,1,0,2Z" transform="translate(-1 -0.33)"/></svg>