<svg id="Шар_1" data-name="Шар 1" xmlns="http://www.w3.org/2000/svg" viewBox="0 0 16 16"><defs><style>.cls-1{fill:#fff;}</style></defs><title>menu_icon_2</title><path class="cls-1" d="M15.16,16H.54l-.29-.26A.93.93,0,0,1,0,15.11V9.78a.91.91,0,0,1,.25-.63l.21-.22.38,0H15.46l.29.26a.89.89,0,0,1,.25.63v5.33a.91.91,0,0,1-.25.63l-.2.22ZM1.4,14.6H14.6V10.29H1.4ZM15.16,7.11H.54L.25,6.85A.91.91,0,0,1,0,6.22V.89A.91.91,0,0,1,.25.26L.45,0,.84,0H15.46l.29.26A.91.91,0,0,1,16,.89V6.22a.91.91,0,0,1-.25.63l-.21.22ZM1.4,5.71H14.6V1.4H1.4Z"/></svg>