<svg id="Шар_1" data-name="Шар 1" xmlns="http://www.w3.org/2000/svg" viewBox="0 0 16 16"><defs><style>.cls-1{fill:#fff;}</style></defs><title>menu_icon_4</title><path class="cls-1" d="M1.83,8.5h8.65a.46.46,0,0,0,.36-.15A.48.48,0,0,0,11,8a.45.45,0,0,0-.14-.35.49.49,0,0,0-.36-.14H1.86L3.67,5.69a.46.46,0,0,0,.14-.35A.48.48,0,0,0,3.67,5a.76.76,0,0,0-.23-.13.57.57,0,0,0-.26,0A.65.65,0,0,0,3,5L0,8l3,3,.18.1a.58.58,0,0,0,.18,0,.52.52,0,0,0,.36-.14.44.44,0,0,0,.08-.11.69.69,0,0,0,0-.13.49.49,0,0,0,0-.12.57.57,0,0,0,0-.13.61.61,0,0,0,0-.12.44.44,0,0,0-.08-.11ZM15,0H6.5a1,1,0,0,0-.71.29A1,1,0,0,0,5.5,1V5.5h1V1.61a.67.67,0,0,1,.08-.3.52.52,0,0,1,.22-.22A.54.54,0,0,1,7.11,1h7.27a.58.58,0,0,1,.42.18.61.61,0,0,1,.17.43V14.39a.57.57,0,0,1-.17.43.54.54,0,0,1-.42.18H7.11a.61.61,0,0,1-.61-.61V10.48h-1V15a1,1,0,0,0,1,1H15l.2,0,.18-.06.17-.08a.64.64,0,0,0,.15-.13l.12-.15a.56.56,0,0,0,.09-.17A1.07,1.07,0,0,0,16,15.2a1.23,1.23,0,0,0,0-.2V1a.93.93,0,0,0-.55-.89A1,1,0,0,0,15,0Z"/></svg>