<svg id="Шар_1" data-name="Шар 1" xmlns="http://www.w3.org/2000/svg" viewBox="0 0 16 16"><defs><style>.cls-1{fill:#fff;}</style></defs><title>menu_icon_1</title><path class="cls-1" d="M15,16.5H9.89a1,1,0,0,1-1-1V8.61a1,1,0,0,1,1-1H15a1,1,0,0,1,1,1V15.5A1,1,0,0,1,15,16.5Zm-4.71-1.4H14.6V9H10.29ZM6.11,16.5H1a1,1,0,0,1-1-1V12.17a1,1,0,0,1,1-1H6.11a1,1,0,0,1,1,1V15.5A1,1,0,0,1,6.11,16.5ZM1.4,15.1H5.71V12.57H1.4ZM6.11,9.39H1a1,1,0,0,1-1-1V1.5a1,1,0,0,1,1-1H6.11a1,1,0,0,1,1,1V8.39A1,1,0,0,1,6.11,9.39ZM1.4,8H5.71V1.9H1.4ZM15,5.83H9.89a1,1,0,0,1-1-1V1.5a1,1,0,0,1,1-1H15a1,1,0,0,1,1,1V4.83A1,1,0,0,1,15,5.83Zm-4.71-1.4H14.6V1.9H10.29Z" transform="translate(0 -0.5)"/></svg>