<svg id="Шар_1" data-name="Шар 1" xmlns="http://www.w3.org/2000/svg" viewBox="0 0 16 16"><defs><style>.cls-1{fill:#fff;}</style></defs><title>menu_icon_3</title><path class="cls-1" d="M16.22,16H.22V13a2.4,2.4,0,0,1,.88-1.75A6.78,6.78,0,0,1,3.22,10a14.92,14.92,0,0,1,5-1,14.83,14.83,0,0,1,5,1,7,7,0,0,1,2.13,1.25A2.39,2.39,0,0,1,16.22,13ZM1.62,14.6h13.2V13a1.06,1.06,0,0,0-.42-.72,5.73,5.73,0,0,0-1.7-1,13.34,13.34,0,0,0-4.48-.9,13.39,13.39,0,0,0-4.48.9,5.66,5.66,0,0,0-1.69,1,1,1,0,0,0-.43.72ZM8.22,8a4,4,0,1,1,4-4A4,4,0,0,1,8.22,8Zm0-6.6A2.6,2.6,0,1,0,10.82,4,2.61,2.61,0,0,0,8.22,1.4Z" transform="translate(-0.22)"/></svg>