<svg id="Шар_1" data-name="Шар 1" xmlns="http://www.w3.org/2000/svg" viewBox="0 0 14 10"><defs><style>.cls-1{fill:#fff;}</style></defs><title>menu_icon_5</title><path class="cls-1" d="M10.43,0A10.91,10.91,0,0,0,7,.76a10.32,10.32,0,0,1-3.53.75A8.25,8.25,0,0,1,.66,1L0,.8V9.35l.33.11A9.11,9.11,0,0,0,3,10h.41a11.06,11.06,0,0,0,3.78-.78A9.45,9.45,0,0,1,11,8.49,7.93,7.93,0,0,1,13.33,9L14,9.2V.66L13.67.54A8.86,8.86,0,0,0,11,0Zm0,1A4.68,4.68,0,0,1,11,1a5.29,5.29,0,0,1,.56.05,1.25,1.25,0,0,0,.54.75A1.19,1.19,0,0,0,13,2V6.53a1.25,1.25,0,0,0-.95.19,1.17,1.17,0,0,0-.35.35,1.35,1.35,0,0,0-.18.47l-.5,0a10.64,10.64,0,0,0-4.18.78A9.5,9.5,0,0,1,3,9L2.46,9a1.3,1.3,0,0,0-.54-.76A1.24,1.24,0,0,0,1,8V3.47a1.06,1.06,0,0,0,.5,0A1.32,1.32,0,0,0,2,3.28a1.29,1.29,0,0,0,.34-.36,1.35,1.35,0,0,0,.18-.47,8.77,8.77,0,0,0,1,0,11.46,11.46,0,0,0,3.84-.8A9.51,9.51,0,0,1,10.45,1ZM7,2.5A2.3,2.3,0,0,0,5,5,2.3,2.3,0,0,0,7,7.5,2.3,2.3,0,0,0,9,5,2.3,2.3,0,0,0,7,2.5Zm0,1c.54,0,1,.69,1,1.5S7.54,6.5,7,6.5,6,5.81,6,5,6.46,3.5,7,3.5Zm3.75,0a.75.75,0,1,0,.53.22A.75.75,0,0,0,10.75,3.5ZM3.25,5a.75.75,0,1,0,.53.22A.75.75,0,0,0,3.25,5Z" transform="translate(0 0)"/></svg>