<svg id="Шар_1" data-name="Шар 1" xmlns="http://www.w3.org/2000/svg" xmlns:xlink="http://www.w3.org/1999/xlink" viewBox="0 0 16.67 14"><defs><style>.cls-1{fill:none;}.cls-2{clip-path:url(#clip-path);}.cls-3{fill:#fff;}</style><clipPath id="clip-path" transform="translate(0.33 -1)"><rect class="cls-1" width="16" height="16"/></clipPath></defs><title>menu_icon_6</title><g class="cls-2"><path class="cls-3" d="M11.33,15a1,1,0,0,1-1-1V12.67A1.66,1.66,0,0,0,8.67,11H3.33a1.66,1.66,0,0,0-1.66,1.67V14a1,1,0,0,1-2,0V12.67a3.68,3.68,0,0,1,1.07-2.6A3.64,3.64,0,0,1,3.33,9H8.67a3.65,3.65,0,0,1,3.66,3.67V14A1,1,0,0,1,11.33,15Z" transform="translate(0.33 -1)"/><path class="cls-3" d="M6,8.33A3.67,3.67,0,1,1,9.67,4.67,3.67,3.67,0,0,1,6,8.33ZM6,3A1.67,1.67,0,1,0,7.67,4.67,1.67,1.67,0,0,0,6,3Z" transform="translate(0.33 -1)"/><path class="cls-3" d="M15.33,15a1,1,0,0,1-1-1V12.67a1.66,1.66,0,0,0-1.25-1.61,1,1,0,0,1-.72-1.22,1,1,0,0,1,1.22-.72,3.66,3.66,0,0,1,2.75,3.55V14A1,1,0,0,1,15.33,15Z" transform="translate(0.33 -1)"/><path class="cls-3" d="M10.67,8.25a1,1,0,0,1-.25-2,1.66,1.66,0,0,0,.9-2.63,1.63,1.63,0,0,0-.9-.59,1,1,0,1,1,.5-1.94,3.67,3.67,0,0,1,0,7.1Z" transform="translate(0.33 -1)"/></g></svg>