<svg id="Шар_1" data-name="Шар 1" xmlns="http://www.w3.org/2000/svg" xmlns:xlink="http://www.w3.org/1999/xlink" viewBox="0 0 16.67 16.63"><defs><style>.cls-1{fill:none;}.cls-2{clip-path:url(#clip-path);}.cls-3{fill:#3e8ce2;}</style><clipPath id="clip-path" transform="translate(0.33 0.3)"><rect class="cls-1" width="16" height="16"/></clipPath></defs><title>settings</title><g class="cls-2"><path class="cls-3" d="M8,11a3,3,0,1,1,3-3A3,3,0,0,1,8,11ZM8,7A1,1,0,1,0,9,8,1,1,0,0,0,8,7Z" transform="translate(0.33 0.3)"/><path class="cls-3" d="M8.05,16.33a2.38,2.38,0,0,1-1.65-.68A2.32,2.32,0,0,1,5.72,14s-.1-.14-.12-.15l-.81-.7.7.71a2.3,2.3,0,0,1-.8.55,2.38,2.38,0,0,1-1.78,0,2.42,2.42,0,0,1-.76-.51,2.14,2.14,0,0,1-.5-.76,2.29,2.29,0,0,1,0-1.78,2.14,2.14,0,0,1,.5-.76l.06-.09,0-.11H2A2.34,2.34,0,0,1-.33,8.05,2.38,2.38,0,0,1,.35,6.4,2.36,2.36,0,0,1,2,5.72s.14-.1.15-.12l.7-.81-.71.7a2.36,2.36,0,0,1-.55-.79,2.44,2.44,0,0,1,0-1.79,2.31,2.31,0,0,1,.51-.76,2.52,2.52,0,0,1,.75-.5,2.32,2.32,0,0,1,1.79,0,2.45,2.45,0,0,1,.76.5l.09.06A1.39,1.39,0,0,1,6,2.12v0l.72-.06h-1V2A2.36,2.36,0,0,1,6.35.35a2.41,2.41,0,0,1,3.3,0A2.38,2.38,0,0,1,10.33,2l0,.11.29,1-.18-1,.75.69-.66-.75a2.27,2.27,0,0,1,.75-.51,2.41,2.41,0,0,1,1.79,0,2.31,2.31,0,0,1,.76.51,2.52,2.52,0,0,1,.5.75,2.37,2.37,0,0,1,.18.9,2.47,2.47,0,0,1-.17.89,2.67,2.67,0,0,1-.51.76l-.06.08a1.51,1.51,0,0,1,.09.47h-.05l.06.72v-1H14a2.33,2.33,0,1,1,0,4.66l-.11,0,0,.05a.13.13,0,0,0,0,.06l-.69.75.75-.66a2.27,2.27,0,0,1,.51.75,2.52,2.52,0,0,1,.17.9,2.28,2.28,0,0,1-.68,1.65,2.28,2.28,0,0,1-.76.5,2.34,2.34,0,0,1-1.78,0,2.48,2.48,0,0,1-.76-.51l-.08-.06-.95-.51.84.55,0,.17a2.34,2.34,0,0,1-2.34,2.33ZM5.56,11.84A2,2,0,0,1,6.4,12a2,2,0,0,1,.93.73,2.1,2.1,0,0,1,.39,1.17.4.4,0,0,0,.1.32.35.35,0,0,0,.47,0,.37.37,0,0,0,.1-.24v-.11a2.15,2.15,0,0,1,.34-1.16A2.12,2.12,0,0,1,9.66,12a2.17,2.17,0,0,1,1.21-.14,2.08,2.08,0,0,1,1.09.56.87.87,0,0,0,.16.13.38.38,0,0,0,.37-.08.36.36,0,0,0,.07-.1.32.32,0,0,0,0-.13.27.27,0,0,0,0-.13.41.41,0,0,0-.07-.11A2.07,2.07,0,0,1,12,9.6a2.11,2.11,0,0,1,1.92-1.27.38.38,0,0,0,.3-.1.34.34,0,0,0,0-.46.33.33,0,0,0-.24-.1h-.11a2.22,2.22,0,0,1-1.16-.35A2.15,2.15,0,0,1,12,6.4a2,2,0,0,1-.07-.23,2.16,2.16,0,0,1-.07-1A2.08,2.08,0,0,1,12.38,4a.87.87,0,0,0,.13-.16.59.59,0,0,0,0-.13.31.31,0,0,0,0-.13.34.34,0,0,0-.07-.11.41.41,0,0,0-.11-.07.36.36,0,0,0-.25,0,.41.41,0,0,0-.11.07,2.19,2.19,0,0,1-1.14.62A2.12,2.12,0,0,1,9.6,4a2.08,2.08,0,0,1-.92-.77,2.1,2.1,0,0,1-.35-1.15.38.38,0,0,0-.1-.3.35.35,0,0,0-.47,0A.36.36,0,0,0,7.67,2v.11a2.16,2.16,0,0,1-.35,1.16A2.12,2.12,0,0,1,6.39,4l-.22.07a2.16,2.16,0,0,1-1,.07A2.13,2.13,0,0,1,4,3.61a.83.83,0,0,0-.15-.12.39.39,0,0,0-.26,0l-.11.08a.41.41,0,0,0-.07.11.25.25,0,0,0,0,.12.27.27,0,0,0,0,.13A.41.41,0,0,0,3.51,4a2.16,2.16,0,0,1,.62,1.14A2.13,2.13,0,0,1,4,6.4a2.05,2.05,0,0,1-.72.93,2.08,2.08,0,0,1-1.18.39.43.43,0,0,0-.32.1.33.33,0,0,0-.09.23.34.34,0,0,0,.09.24.37.37,0,0,0,.24.1h.11a2.06,2.06,0,0,1,1.16.35A2,2,0,0,1,4,9.66a2,2,0,0,1,.14,1.21A2.13,2.13,0,0,1,3.61,12a.36.36,0,0,0-.11.15.31.31,0,0,0,0,.13.59.59,0,0,0,0,.13.44.44,0,0,0,.08.11l.1.07a.33.33,0,0,0,.26,0A.41.41,0,0,0,4,12.49a2.16,2.16,0,0,1,1.14-.62A2.43,2.43,0,0,1,5.56,11.84ZM12.93,10h0Z" transform="translate(0.33 0.3)"/></g></svg>