<svg id="Шар_1" data-name="Шар 1" xmlns="http://www.w3.org/2000/svg" viewBox="0 0 24 20"><defs><style>.cls-1{fill:#3e8ce2;}</style></defs><title>user-plus</title><path class="cls-1" d="M16,22a1,1,0,0,1-1-1V19a3,3,0,0,0-3-3H5a3,3,0,0,0-2.12.88A3,3,0,0,0,2,19v2a1,1,0,0,1-2,0V19a5,5,0,0,1,5-5h7a5,5,0,0,1,5,5v2A1,1,0,0,1,16,22Z" transform="translate(0 -2)"/><path class="cls-1" d="M8.5,12a5,5,0,1,1,5-5A5,5,0,0,1,8.5,12Zm0-8a3,3,0,1,0,3,3A3,3,0,0,0,8.5,4Z" transform="translate(0 -2)"/><path class="cls-1" d="M20,15a1,1,0,0,1-1-1V8a1,1,0,0,1,2,0v6A1,1,0,0,1,20,15Z" transform="translate(0 -2)"/><path class="cls-1" d="M23,12H17a1,1,0,0,1,0-2h6a1,1,0,0,1,0,2Z" transform="translate(0 -2)"/></svg>