<svg width="35" height="41" viewBox="0 0 35 41" fill="none" xmlns="http://www.w3.org/2000/svg">
<path d="M17.5 38.4167C17.5 38.4167 31.8333 31.25 31.8333 20.5V7.95834L17.5 2.58334L3.16666 7.95834V20.5C3.16666 31.25 17.5 38.4167 17.5 38.4167Z" stroke="#3E8CE2" stroke-width="5" stroke-linecap="round" stroke-linejoin="round"/>
<path d="M23.75 18.925V19.5C23.7492 20.8477 23.3128 22.1591 22.5058 23.2386C21.6988 24.3181 20.5645 25.1078 19.2721 25.4899C17.9796 25.8721 16.5983 25.8262 15.334 25.3591C14.0698 24.892 12.9904 24.0288 12.2568 22.8981C11.5233 21.7675 11.1749 20.43 11.2635 19.0852C11.3522 17.7403 11.8732 16.4602 12.7489 15.4356C13.6246 14.4111 14.808 13.6971 16.1226 13.4001C17.4372 13.103 18.8127 13.2389 20.0437 13.7875" stroke="#219653" stroke-width="2" stroke-linecap="round" stroke-linejoin="round"/>
<path d="M23.75 14.5L17.5 20.7563L15.625 18.8813" stroke="#219653" stroke-width="2" stroke-linecap="round" stroke-linejoin="round"/>
</svg>
