<svg width="42" height="42" viewBox="0 0 42 42" fill="none" xmlns="http://www.w3.org/2000/svg">
<path d="M21 9.5C19.5785 9.5 18.1888 9.92154 17.0068 10.7113C15.8249 11.5011 14.9036 12.6236 14.3596 13.937C13.8156 15.2503 13.6733 16.6955 13.9506 18.0897C14.2279 19.484 14.9125 20.7646 15.9177 21.7698C16.9229 22.775 18.2036 23.4596 19.5978 23.7369C20.992 24.0142 22.4372 23.8719 23.7505 23.3279C25.0639 22.7839 26.1864 21.8626 26.9762 20.6807C27.766 19.4987 28.1875 18.1091 28.1875 16.6875C28.1875 14.7813 27.4303 12.9531 26.0823 11.6052C24.7344 10.2573 22.9062 9.5 21 9.5Z" fill="#535355"/>
<path d="M21 0.875C17.0197 0.875 13.1287 2.05531 9.81916 4.26667C6.50962 6.47804 3.93015 9.62113 2.40693 13.2985C0.88372 16.9759 0.485178 21.0223 1.26171 24.9262C2.03823 28.8301 3.95495 32.416 6.76948 35.2305C9.58402 38.0451 13.1699 39.9618 17.0738 40.7383C20.9777 41.5148 25.0242 41.1163 28.7015 39.5931C32.3789 38.0699 35.522 35.4904 37.7333 32.1809C39.9447 28.8713 41.125 24.9803 41.125 21C41.1189 15.6644 38.9967 10.5491 35.2238 6.7762C31.451 3.00335 26.3356 0.881087 21 0.875ZM32.4885 33.8311C32.4599 31.9456 31.6916 30.1468 30.3494 28.8223C29.0071 27.4978 27.1982 26.7536 25.3125 26.75H16.6875C14.8018 26.7536 12.9929 27.4978 11.6506 28.8223C10.3084 30.1468 9.54016 31.9456 9.51151 33.8311C6.90469 31.5035 5.06637 28.4389 4.23996 25.0432C3.41355 21.6475 3.63803 18.0809 4.88368 14.8157C6.12933 11.5504 8.33739 8.74052 11.2155 6.75806C14.0936 4.77561 17.5059 3.7141 21.0007 3.7141C24.4955 3.7141 27.9079 4.77561 30.786 6.75806C33.6641 8.74052 35.8721 11.5504 37.1178 14.8157C38.3634 18.0809 38.5879 21.6475 37.7615 25.0432C36.9351 28.4389 35.0968 31.5035 32.4899 33.8311H32.4885Z" fill="#535355"/>
</svg>
